<svg width="25" height="25" viewBox="0 0 25 25" fill="none" xmlns="http://www.w3.org/2000/svg">
<g clip-path="url(#clip0_30_215)">
<path d="M21.875 3.125H3.125C1.39893 3.125 0 4.52393 0 6.25V18.75C0 20.4761 1.39893 21.875 3.125 21.875H21.875C23.6011 21.875 25 20.4761 25 18.75V6.25C25 4.52393 23.5986 3.125 21.875 3.125ZM3.125 5.46875H21.875C22.3058 5.46875 22.6562 5.81924 22.6562 6.25V7.33203L14.5117 14.0752C13.3794 15.0166 11.6143 15.0161 10.4849 14.076L2.34375 7.33398V6.25C2.34375 5.82031 2.69434 5.46875 3.125 5.46875ZM21.875 19.5312H3.125C2.69424 19.5312 2.34375 19.1808 2.34375 18.75V10.3857L8.98926 15.9229C9.97559 16.7383 11.2207 17.1875 12.5 17.1875C13.7793 17.1875 15.0269 16.7389 16.0142 15.9189L22.6562 10.3857V18.75C22.6562 19.1797 22.3047 19.5312 21.875 19.5312Z" fill="#01372A"/>
</g>
<defs>
<clipPath id="clip0_30_215">
<rect width="25" height="25" fill="white"/>
</clipPath>
</defs>
</svg>
