<svg width="23" height="23" viewBox="0 0 23 23" fill="none" xmlns="http://www.w3.org/2000/svg">
<g clip-path="url(#clip0_30_176)">
<path d="M13.5023 16.1171C13.5023 16.1171 15.2349 15.1252 15.6885 14.8868C16.1409 14.6476 16.6094 14.5873 16.894 14.761C17.3249 15.0246 20.9434 17.4317 21.2481 17.6448C21.5528 17.8583 21.6996 18.4681 21.2807 19.0655C20.8634 19.6629 18.9386 22.025 18.123 21.9998C17.3061 21.9733 13.9097 21.8988 7.50491 15.4924C1.10145 9.08804 1.02571 5.69075 0.999604 4.87384C0.973501 4.05736 3.33564 2.13213 3.93303 1.71447C4.53126 1.29725 5.14191 1.4543 5.35416 1.74785C5.59551 2.08206 7.97477 5.68904 8.23666 6.10241C8.41596 6.38484 8.35006 6.85598 8.11085 7.30873C7.87292 7.76233 6.881 9.49499 6.881 9.49499C6.881 9.49499 7.58022 10.6876 9.94493 13.0519C12.3101 15.4166 13.5023 16.1171 13.5023 16.1171Z" stroke="#01372A" stroke-width="2.32568" stroke-miterlimit="10"/>
</g>
<defs>
<clipPath id="clip0_30_176">
<rect width="23" height="23" fill="white"/>
</clipPath>
</defs>
</svg>
