<svg width="30" height="30" viewBox="0 0 30 30" fill="none" xmlns="http://www.w3.org/2000/svg">
<path d="M15 23.8781C7.94062 23.8781 2.42812 15.8719 2.19375 15.525L1.875 15L2.23125 14.475C2.42813 14.1281 7.94062 6.12188 15 6.12188C22.0594 6.12188 27.5719 14.1281 27.8062 14.475L28.125 15L27.7688 15.525C27.5719 15.8719 22.0594 23.8781 15 23.8781ZM4.13437 15C5.4375 16.7063 9.89062 22.0031 15 22.0031C20.1094 22.0031 24.5625 16.7156 25.8656 15C24.5625 13.2938 20.1094 7.99688 15 7.99688C9.89062 7.99688 5.4375 13.2844 4.13437 15Z" fill="#01372A"/>
<path d="M15 10.3125C14.8501 10.3038 14.6999 10.3038 14.55 10.3125C14.472 10.3194 14.3993 10.3547 14.3457 10.4118C14.2921 10.4688 14.2614 10.5436 14.2594 10.6219C14.2596 10.7063 14.2933 10.7873 14.3531 10.8469C14.795 11.2978 15.0438 11.9031 15.0469 12.5344C15.0469 13.1883 14.7871 13.8154 14.3247 14.2778C13.8623 14.7402 13.2352 15 12.5813 15C11.9589 14.9981 11.3612 14.7563 10.9125 14.325C10.8707 14.2805 10.8174 14.2486 10.7585 14.2328C10.6996 14.2169 10.6375 14.2178 10.579 14.2354C10.5206 14.2529 10.4682 14.2863 10.4278 14.332C10.3873 14.3776 10.3604 14.4336 10.35 14.4938C10.3264 14.6615 10.3139 14.8306 10.3125 15C10.3125 15.9271 10.5874 16.8334 11.1025 17.6042C11.6176 18.3751 12.3496 18.9759 13.2062 19.3307C14.0627 19.6855 15.0052 19.7783 15.9145 19.5974C16.8238 19.4166 17.659 18.9701 18.3146 18.3146C18.9701 17.659 19.4166 16.8238 19.5974 15.9145C19.7783 15.0052 19.6855 14.0627 19.3307 13.2062C18.9759 12.3496 18.3751 11.6176 17.6042 11.1025C16.8334 10.5874 15.9271 10.3125 15 10.3125Z" fill="#01372A"/>
</svg>
