<svg width="36" height="46" viewBox="0 0 36 46" fill="none" xmlns="http://www.w3.org/2000/svg">
<path d="M36 28.3077C36 38.0385 27.9 46 18 46C8.1 46 0 38.0385 0 28.3077C0 18.5769 8.1 0 18 0C27.9 0 36 18.5769 36 28.3077Z" fill="#01372A"/>
<mask id="mask0_6_132" style="mask-type:alpha" maskUnits="userSpaceOnUse" x="0" y="0" width="36" height="46">
<path d="M36 28.3077C36 38.0385 27.9 46 18 46C8.1 46 0 38.0385 0 28.3077C0 18.5769 8.1 0 18 0C27.9 0 36 18.5769 36 28.3077Z" fill="#01372A"/>
</mask>
<g mask="url(#mask0_6_132)">
<path d="M8.08426 29.9253C-1.03665 34.8529 -9.56639 30.2363 -12.6911 27.3121C-14.9714 30.1492 -11.4623 33.3166 -9.33414 34.0939C-10.6212 35.0143 -12.4293 34.5814 -13.1725 34.2499C-14.0339 36.8324 -9.52416 38.9469 -7.56063 39.4446L-11.0443 40.0046C-9.47349 44.7829 -0.128779 45.3139 4.34722 44.982C12.3027 43.9866 16.5718 37.5573 17.7119 34.4672C18.0666 45.9153 4.60058 47.5745 -2.17676 46.973C-0.504597 48.2672 3.37601 48.6322 5.1073 48.6529C6.07006 52.2367 6.98637 53.6304 7.32418 53.8792H8.27428C9.03435 54.4268 8.4643 50.4987 8.08426 48.4663C21.5629 47.4708 24.2992 35.6908 23.9825 29.9253C25.3506 30.423 25.7771 30.34 25.8194 30.2363C24.7552 27.6978 24.447 24.2841 24.4259 22.8946L24.6159 22.7702L27.4028 21.5258L24.2992 20.157C23.9952 17.8176 21.0055 17.2328 19.5487 17.2328C20.0048 16.6852 21.1744 16.7143 21.7023 16.7972C23.8812 17.3447 23.8754 16.7972 23.9825 16.4861C25.1986 12.9521 23.3111 12.5357 22.4624 13.0019C20.5242 14.4023 19.8865 14.0389 19.5487 13.4997C18.1806 11.9069 16.8505 13.0019 16.5084 13.9045C16.2804 15.2111 15.8117 15.5114 15.2416 15.4906C14.2282 15.4906 13.6202 15.5844 13.4935 16.1444C13.6202 18.5087 15.6217 19.12 16.5084 19.1615C16.5084 22.7698 10.8923 27.8408 8.08426 29.9253Z" fill="#F9F9F9"/>
<path d="M12.1 49.1822L10.0098 49.68C10.2632 51.0737 10.8755 52.2102 11.1499 52.6042H12.29C12.4421 51.7581 12.2267 49.9703 12.1 49.1822Z" fill="#F9F9F9"/>
</g>
</svg>
