<svg width="359" height="338" viewBox="0 0 359 338" fill="none" xmlns="http://www.w3.org/2000/svg">
<path d="M143.33 40.0518L146.74 55.8717L149.63 55.2518L149.77 55.8918L141.64 57.6517L141.5 57.0117L144.37 56.3918L141.2 41.7218L138.33 42.3418L138.19 41.7018L138.63 41.6118C140.45 41.2018 142.02 40.6918 143.33 40.0518Z" fill="black"/>
<path d="M165.91 53.6316L165.89 53.1116C169.58 52.3916 171.66 49.9116 172.14 45.6716L172.09 45.6216C171.31 46.5616 170.37 47.0416 169.28 47.0716C168.07 47.1116 166.95 46.6016 165.92 45.5616C164.9 44.5116 164.37 43.2616 164.33 41.8216C164.29 40.2916 164.73 38.9116 165.66 37.7016C166.6 36.4816 167.81 35.8516 169.31 35.8016C170.9 35.7516 172.24 36.3716 173.31 37.6516C174.39 38.9316 174.96 40.6216 175.02 42.7316C175.1 45.4316 174.27 47.8116 172.53 49.8616C170.8 51.9116 168.59 53.1716 165.91 53.6316ZM172.22 44.6216L172.24 40.3516C172.16 37.6416 171.23 36.3116 169.45 36.3616C168.55 36.3916 167.92 36.7716 167.54 37.5016C167.16 38.2316 167.01 39.9316 167.09 42.6116C167.16 45.1716 167.94 46.4316 169.42 46.3916C170.46 46.3816 171.4 45.7816 172.22 44.6216Z" fill="black"/>
<path d="M201.85 36.5416L201.72 37.3216C197.81 37.1816 195.31 39.0916 194.23 43.0616L194.27 43.1216C195.19 42.3516 196.18 42.0516 197.25 42.2216C198.55 42.4316 199.57 43.1416 200.34 44.3716C201.11 45.5916 201.38 46.9116 201.16 48.3316C200.92 49.8616 200.19 51.1416 198.98 52.1816C197.78 53.2016 196.48 53.6116 195.07 53.3816C193.54 53.1416 192.38 52.2616 191.58 50.7416C190.79 49.2216 190.56 47.4216 190.89 45.3616C191.33 42.6316 192.57 40.4416 194.63 38.8116C196.69 37.1816 199.1 36.4216 201.85 36.5416ZM193.91 44.2016L193.48 46.4216C192.99 49.5016 193.02 51.3116 193.57 51.8416C194.12 52.3716 194.66 52.6716 195.17 52.7616C195.96 52.8916 196.62 52.6516 197.15 52.0516C197.69 51.4516 198.12 50.1116 198.45 48.0516C198.8 45.8716 198.82 44.4816 198.51 43.8816C198.21 43.2816 197.7 42.9216 196.99 42.8116C195.99 42.6616 194.96 43.1216 193.91 44.2016Z" fill="black"/>
<path d="M225.34 55.1214L223.35 59.4514L214.32 56.2314L214.83 54.8014C216.14 54.0814 218.01 53.2014 220.42 52.1714C222.84 51.1314 224.42 49.6014 225.14 47.5614C225.55 46.4114 225.63 45.3914 225.37 44.5114C225.11 43.6214 224.52 43.0114 223.59 42.6814C222.76 42.3914 221.99 42.4114 221.28 42.7514C220.57 43.0914 220.11 43.5614 219.89 44.1714C219.78 44.4814 219.8 44.6614 219.94 44.7214C219.97 44.7314 220.05 44.7314 220.16 44.7014C220.49 44.6214 220.78 44.6214 221.03 44.7114C221.34 44.8214 221.56 45.0414 221.69 45.3714C221.83 45.6914 221.84 46.0214 221.72 46.3514C221.6 46.6914 221.37 46.9414 221.04 47.1014C220.71 47.2614 220.37 47.2714 220.02 47.1414C219.52 46.9614 219.19 46.6014 219.01 46.0614C218.83 45.5114 218.86 44.9114 219.09 44.2714C219.44 43.2914 220.15 42.5714 221.22 42.1114C222.3 41.6414 223.47 41.6414 224.74 42.0914C225.98 42.5314 226.93 43.2614 227.59 44.2714C228.24 45.2814 228.37 46.3414 227.97 47.4614C227.55 48.6514 226.76 49.5914 225.62 50.3014C224.47 51.0014 222.87 51.8014 220.81 52.6814C218.76 53.5714 217.28 54.2514 216.38 54.7214L221.86 56.6714C222.88 57.0314 223.46 57.1514 223.61 57.0114C223.77 56.8814 223.98 56.5114 224.26 55.9114L224.74 54.9114L225.34 55.1214Z" fill="black"/>
<path d="M298.04 285.782C298.04 285.782 315.1 263.972 332.07 273.002C332.07 273.002 325.02 290.072 298.04 285.782Z" fill="black" stroke="black" stroke-width="1.0024" stroke-miterlimit="10"/>
<path d="M275.39 216.662C281.66 223.172 273.94 223.662 273.94 223.662C270.56 225.112 263.09 214.252 263.09 214.252C253.44 187.722 198.44 191.332 198.44 191.332C187.02 190.752 175.58 190.182 164.14 190.122C159.17 190.092 154.75 190.802 149.82 191.582C146 192.182 142.15 192.562 138.28 192.532C136.85 192.522 127.96 192.542 127.51 191.332C125.1 184.822 115.93 182.412 115.93 182.412C100.73 182.892 98.08 176.382 98.08 176.382L97.84 185.792C103.87 200.022 100.98 199.062 100.98 199.062C95.91 202.682 93.26 208.712 93.26 208.712C84.58 220.532 72.03 217.152 72.03 217.152V230.902C91.81 248.512 101.46 247.792 101.46 247.792C111.83 256.472 126.06 259.612 126.06 259.612C138.69 269.722 144.71 270.822 146.04 270.932C144.03 269.222 128.09 254.832 138.04 234.922C137.41 236.172 150.78 241.302 151.58 241.552C164.74 245.572 179.05 244.662 192.21 241.112C196.68 239.902 199.4 239.302 200.78 234.652C201.78 231.282 203.1 227.982 204.7 224.852C208.6 217.232 214.87 209.822 223.92 208.872L221.51 203.082C221.51 203.082 235.98 199.222 236.95 211.762L239.84 216.102L234.53 215.622C234.53 215.622 237.91 220.932 228.74 224.792C228.74 224.792 232.12 232.512 229.22 249.392C229.22 249.392 239.83 270.132 220.54 281.232C220.02 281.532 219.48 281.812 218.92 282.072L221.83 282.522C272 281.072 269.35 230.182 269.35 230.182C278.52 231.142 281.41 225.362 281.41 225.362C283.35 216.422 275.39 216.662 275.39 216.662Z" fill="#23160B"/>
<path d="M47.57 160.702C48.21 160.372 48.84 160.032 49.45 159.662C53.3 157.342 56.31 152.302 58.83 148.762C58.83 148.762 60.04 140.322 91.64 141.762C91.64 141.762 98.39 134.042 112.14 143.932C112.14 143.932 119.62 147.792 138.43 147.312C138.43 147.312 203.32 152.622 241.67 137.182C241.67 137.182 251.08 161.782 254.94 180.122C254.94 180.122 252.05 198.212 281.72 192.422C281.72 192.422 278.34 201.832 270.62 206.172C270.62 206.172 256.63 179.882 201.39 183.982C201.39 183.982 168.68 180.602 162.24 181.452C162.24 181.452 135.06 187.122 130.47 179.882C130.47 179.882 121.06 173.132 105.87 174.332C105.87 174.332 101.53 169.992 93.33 168.062C93.33 168.062 87.78 185.752 93.33 195.482C93.33 195.482 88.02 201.352 84.89 206.902C84.89 206.902 71.86 206.182 72.35 208.352C72.35 208.352 60.53 211.492 64.39 232.472C64.39 232.472 75.49 251.042 102.5 257.072C102.5 257.072 106.12 258.032 102.98 259.722C102.98 259.722 84.16 263.582 60.28 244.522L58.59 242.592C58.59 242.592 55.45 244.522 53.77 237.772C52.08 231.022 56.18 241.392 48.7 205.932C48.7 205.932 46.29 193.392 46.77 176.742C46.8 175.562 42.52 171.602 41.95 170.002C39.97 164.432 43.76 162.702 47.57 160.702Z" fill="#23160B"/>
<path d="M251.02 126.272C251.02 126.272 247.04 131.702 252.83 140.742C252.83 140.742 258.62 160.642 260.07 171.132C260.07 171.132 262.24 191.392 275.27 184.522C275.27 184.522 292.64 189.222 290.47 170.052C290.47 170.052 293.36 150.872 296.62 135.682C296.62 135.682 299.51 133.512 296.62 126.272C297.18 127.662 304.37 128.782 305.66 128.982C313.04 130.172 318.23 123.002 323.39 118.672C323.39 118.672 327.73 115.412 323.39 111.432C323.39 111.432 306.75 102.382 299.51 109.622L294.08 103.112C294.08 103.112 321.58 110.712 306.02 90.4517L304.93 97.3217L239.44 99.1317V90.4517C239.44 90.4517 221 110.412 251.02 104.202C251.02 104.202 251.02 111.072 245.59 111.442C245.59 111.442 236.91 104.572 224.61 113.972C218.66 118.522 225.11 123.112 228.64 126.722C233.25 131.422 236.59 131.922 242.69 129.532C242.7 129.522 251.02 126.272 251.02 126.272Z" fill="#23160B"/>
<path d="M57.79 137.632C66.67 103.012 91.81 74.9219 124.59 61.9619" stroke="black" stroke-width="1.9381" stroke-miterlimit="10" stroke-linecap="round"/>
<path d="M231.98 85.7118C217.46 76.4718 200.24 71.1118 181.76 71.1118C138.8 71.1118 102.59 100.022 91.52 139.462" stroke="black" stroke-width="1.9381" stroke-miterlimit="10" stroke-linecap="round"/>
<path d="M229.82 90.7018C216.24 82.0718 200.14 77.0718 182.86 77.0718C142.68 77.0718 108.82 104.082 98.48 140.902" stroke="black" stroke-width="1.9381" stroke-miterlimit="10" stroke-linecap="round"/>
<path d="M239.34 61.9619C239.34 61.9619 264.31 76.5019 271.9 87.3619" stroke="black" stroke-width="2.2611" stroke-miterlimit="10" stroke-linecap="round"/>
<path d="M9.37 150.752C9.37 150.752 36.62 8.91168 164.1 2.40168C164.1 2.40168 327.13 -13.5183 356.87 155.092" stroke="black" stroke-width="2.2639" stroke-miterlimit="10" stroke-linecap="round"/>
<path d="M14.59 164.292C14.59 164.292 41.08 16.4218 165 9.63181C165 9.63181 323.47 -6.96817 352.39 168.822" stroke="black" stroke-width="2.2611" stroke-miterlimit="10" stroke-linecap="round"/>
<path d="M21.67 171.892C21.67 171.892 47.04 24.0219 165.72 17.2319C165.72 17.2319 317.49 0.631912 345.19 176.422" stroke="black" stroke-width="2.2611" stroke-miterlimit="10" stroke-linecap="round"/>
<path d="M0.190002 196.352C0.680002 199.432 1.36999 202.472 2.15999 205.482C2.91999 208.492 3.82 211.472 4.84 214.402C5.83 217.342 7.14999 220.142 8.20999 223.042C9.24999 225.952 10.48 228.772 11.51 231.782L11.33 231.882C10.37 230.642 9.36 229.382 8.59 228.012C8.17 227.342 7.78999 226.652 7.39999 225.962L6.34999 223.842C4.97999 220.982 4.13 217.922 3.3 214.892C2.46 211.862 1.74999 208.792 1.17999 205.712C0.639993 202.622 0.23 199.512 0 196.392L0.190002 196.352Z" fill="black"/>
<path d="M17.99 190.192C18.48 193.272 19.17 196.312 19.96 199.322C20.72 202.332 21.62 205.312 22.64 208.242C23.63 211.182 24.95 213.982 26.01 216.882C27.05 219.792 28.28 222.612 29.31 225.622L29.13 225.722C28.17 224.482 27.16 223.222 26.39 221.852C25.97 221.182 25.59 220.492 25.2 219.802L24.15 217.682C22.78 214.822 21.93 211.762 21.1 208.732C20.26 205.702 19.55 202.632 18.98 199.552C18.44 196.462 18.03 193.352 17.8 190.232L17.99 190.192Z" fill="black"/>
<path d="M7.26992 162.942C7.48992 167.542 7.91993 172.132 8.46993 176.702C8.97993 181.272 9.64994 185.832 10.4399 190.352C11.1999 194.882 12.2999 199.352 13.1499 203.852C13.9699 208.372 14.9899 212.842 15.7499 217.422L15.5599 217.482C14.6799 215.342 13.7599 213.192 13.0899 210.972C12.7199 209.872 12.3999 208.762 12.0499 207.652L11.1699 204.292C10.5699 202.052 10.1999 199.762 9.78993 197.482C9.46993 195.182 9.10993 192.902 8.83993 190.602C7.62993 181.422 6.98992 172.182 7.06992 162.942H7.26992Z" fill="black"/>
<path d="M353.41 207.072C353.14 209.652 352.59 212.192 351.93 214.712C351.24 217.222 350.4 219.692 349.41 222.102C348.95 223.322 348.38 224.502 347.86 225.712C347.27 226.882 346.67 228.052 345.91 229.122C344.46 231.302 342.69 233.292 340.66 234.962L340.51 234.832C341.68 232.462 343.03 230.332 344.21 228.072C345.42 225.852 346.83 223.732 347.95 221.442C349.1 219.172 350.11 216.812 350.98 214.412C351.88 212.012 352.64 209.552 353.21 207.052L353.41 207.072Z" fill="black"/>
<path d="M333.41 202.232C333.14 204.812 332.59 207.352 331.93 209.872C331.24 212.382 330.4 214.852 329.41 217.262C328.95 218.482 328.38 219.662 327.87 220.872C327.28 222.042 326.68 223.212 325.92 224.282C324.47 226.462 322.7 228.452 320.67 230.122L320.52 229.992C321.69 227.622 323.04 225.492 324.22 223.232C325.43 221.012 326.84 218.892 327.96 216.602C329.11 214.332 330.12 211.972 330.99 209.572C331.89 207.172 332.65 204.712 333.22 202.212L333.41 202.232Z" fill="black"/>
<path d="M345.45 180.812C345.5 188.182 344.72 195.552 343.31 202.822C342.99 204.642 342.57 206.442 342.2 208.262C341.72 210.052 341.3 211.862 340.64 213.592C339.43 217.092 337.84 220.482 335.91 223.642L335.73 223.562C336.65 219.962 337.8 216.512 338.74 212.982C339.72 209.472 340.9 206.022 341.76 202.472C342.65 198.932 343.38 195.342 343.95 191.722C344.56 188.112 345.03 184.462 345.26 180.802L345.45 180.812Z" fill="black"/>
<path d="M139.5 287.392C142.6 290.042 145.94 292.432 149.33 294.702C152.72 296.972 156.24 299.072 159.83 301.012C167.01 304.892 174.52 308.162 182.27 310.632C190.01 313.122 198.02 314.812 206.1 315.502C214.18 316.202 222.33 315.892 230.31 314.572C238.27 313.222 246.11 310.992 253.46 307.652C260.83 304.392 267.96 300.512 274.57 295.822L277.08 294.112C277.92 293.542 278.76 292.982 279.54 292.332L284.32 288.562C285.11 287.932 285.94 287.332 286.71 286.672L288.98 284.642C290.49 283.282 292.02 281.942 293.55 280.602C294.33 279.952 295.04 279.212 295.76 278.492L297.92 276.332L302.26 272.012C305.03 269.022 307.74 265.962 310.56 262.972L310.8 263.162C308.35 266.442 305.82 269.682 303.3 272.942L299.2 277.552L297.14 279.862C296.45 280.632 295.79 281.422 295.03 282.122C289.22 287.962 283.12 293.582 276.31 298.322L273.78 300.122L272.51 301.012L271.18 301.812L265.85 305.032C264.98 305.602 264.04 306.032 263.1 306.492L260.3 307.862L257.5 309.232C256.57 309.682 255.58 310.022 254.62 310.422C246.98 313.682 238.86 315.782 230.67 316.972C222.47 318.172 214.12 318.332 205.9 317.462C197.67 316.602 189.58 314.742 181.78 312.062C173.99 309.372 166.5 305.882 159.37 301.802C155.81 299.762 152.33 297.572 148.98 295.202C145.63 292.832 142.35 290.362 139.29 287.612L139.5 287.392Z" fill="black"/>
<path d="M215.15 287.282C212.09 290.032 208.81 292.502 205.46 294.872C202.11 297.242 198.63 299.432 195.07 301.472C187.94 305.552 180.45 309.042 172.66 311.732C164.86 314.402 156.77 316.272 148.54 317.132C140.32 318.002 131.97 317.842 123.77 316.642C115.58 315.452 107.46 313.352 99.82 310.092C98.86 309.692 97.87 309.362 96.94 308.902L94.14 307.532L91.34 306.162C90.41 305.702 89.46 305.272 88.59 304.702L83.26 301.482L81.93 300.682L80.66 299.792L78.13 297.992C71.33 293.252 65.22 287.632 59.41 281.792C58.66 281.092 57.99 280.302 57.3 279.532L55.24 277.222L51.14 272.612C48.62 269.352 46.09 266.122 43.64 262.832L43.88 262.642C46.69 265.632 49.41 268.692 52.18 271.682L56.52 276.002L58.68 278.162C59.4 278.882 60.1 279.622 60.89 280.272C62.42 281.612 63.95 282.952 65.46 284.312L67.73 286.342C68.5 287.002 69.32 287.602 70.12 288.232L74.9 292.002C75.68 292.652 76.52 293.212 77.36 293.782L79.87 295.492C86.47 300.172 93.6 304.062 100.98 307.322C108.33 310.672 116.17 312.892 124.13 314.242C132.1 315.562 140.25 315.872 148.34 315.172C156.42 314.482 164.43 312.792 172.17 310.302C179.93 307.832 187.43 304.562 194.61 300.682C198.2 298.742 201.71 296.652 205.11 294.372C208.5 292.102 211.84 289.712 214.94 287.062L215.15 287.282Z" fill="black"/>
<path d="M217.42 321.772C217.42 321.772 243.08 316.702 248.8 335.902C248.8 335.902 232.99 344.352 217.42 321.772Z" fill="black" stroke="black" stroke-miterlimit="10"/>
<path d="M238.62 321.022C238.62 321.022 261.49 308.332 272.82 324.852C272.82 324.852 260.36 337.732 238.62 321.022Z" fill="black" stroke="black" stroke-miterlimit="10"/>
<path d="M260.28 313.892C260.28 313.892 281.03 297.962 294.67 312.632C294.67 312.632 284.25 327.212 260.28 313.892Z" fill="black" stroke="black" stroke-miterlimit="10"/>
<path d="M278.45 303.962C278.45 303.962 295.12 281.652 313.04 291.922C313.04 291.912 306.48 309.652 278.45 303.962Z" fill="black" stroke="black" stroke-width="1.0461" stroke-miterlimit="10"/>
<path d="M309.62 271.152C309.62 271.152 323.05 247.312 338.95 250.562C338.96 250.562 334.07 267.482 309.62 271.152Z" fill="black" stroke="black" stroke-width="0.9002" stroke-miterlimit="10"/>
<path d="M313.05 257.682C313.05 257.682 317.18 229.072 335.87 227.402C335.87 227.402 337.97 246.252 313.05 257.682Z" fill="black" stroke="black" stroke-width="1.0058" stroke-miterlimit="10"/>
<path d="M298.14 273.292C298.14 273.292 295.89 240.332 313.27 232.762C313.26 232.772 319.33 253.012 298.14 273.292Z" fill="black" stroke="black" stroke-width="1.0632" stroke-miterlimit="10"/>
<path d="M281.74 286.772C281.74 286.772 277.89 258.222 291.8 250.432C291.8 250.432 298.04 267.642 281.74 286.772Z" fill="black" stroke="black" stroke-width="0.9049" stroke-miterlimit="10"/>
<path d="M258.78 303.402C258.78 303.402 258.42 272.772 277.03 267.622C277.03 267.622 282.14 286.932 258.78 303.402Z" fill="black" stroke="black" stroke-width="1.047" stroke-miterlimit="10"/>
<path d="M239.47 310.042C239.47 310.042 242.07 281.352 258.81 277.632C258.8 277.632 261.44 296.002 239.47 310.042Z" fill="black" stroke="black" stroke-width="0.9498" stroke-miterlimit="10"/>
<path d="M217.64 315.132C217.64 315.132 223.24 289.072 240.05 288.312C240.05 288.312 240.67 305.682 217.64 315.132Z" fill="black" stroke="black" stroke-width="0.9118" stroke-miterlimit="10"/>
<path d="M132.4 319.992C132.4 319.992 106.74 314.922 101.02 334.122C101.02 334.122 116.83 342.562 132.4 319.992Z" fill="black" stroke="black" stroke-miterlimit="10"/>
<path d="M112.2 318.232C112.2 318.232 89.33 305.542 78 322.062C78 322.062 90.45 334.952 112.2 318.232Z" fill="black" stroke="black" stroke-miterlimit="10"/>
<path d="M90.54 310.102C90.54 310.102 69.79 294.172 56.15 308.842C56.15 308.842 66.57 323.432 90.54 310.102Z" fill="black" stroke="black" stroke-miterlimit="10"/>
<path d="M72.37 300.172C72.37 300.172 55.7 277.862 37.78 288.132C37.78 288.132 44.33 305.872 72.37 300.172Z" fill="black" stroke="black" stroke-width="1.0461" stroke-miterlimit="10"/>
<path d="M54.84 281.822C54.84 281.822 37.29 260.672 21.52 268.102C21.52 268.102 29.22 284.302 54.84 281.822Z" fill="black" stroke="black" stroke-width="0.9431" stroke-miterlimit="10"/>
<path d="M41.08 266.542C41.08 266.542 27.94 242.552 11.99 245.602C11.99 245.612 16.68 262.592 41.08 266.542Z" fill="black" stroke="black" stroke-width="0.9002" stroke-miterlimit="10"/>
<path d="M37.77 253.892C37.77 253.892 33.64 225.282 14.95 223.612C14.95 223.612 12.84 242.472 37.77 253.892Z" fill="black" stroke="black" stroke-width="1.0058" stroke-miterlimit="10"/>
<path d="M53.68 268.512C53.68 268.512 55.93 235.552 38.55 227.982C38.55 227.982 32.49 248.232 53.68 268.512Z" fill="black" stroke="black" stroke-width="1.0632" stroke-miterlimit="10"/>
<path d="M71.11 285.182C71.11 285.182 73.66 254.862 57.09 247.862C57.09 247.862 51.03 266.482 71.11 285.182Z" fill="black" stroke="black" stroke-width="0.999" stroke-miterlimit="10"/>
<path d="M92.06 300.022C92.06 300.022 91.96 269.532 74.88 263.962C74.88 263.962 70.47 283.062 92.06 300.022Z" fill="black" stroke="black" stroke-width="0.9987" stroke-miterlimit="10"/>
<path d="M111.35 306.262C111.35 306.262 108.75 277.572 92.01 273.852C92.01 273.842 89.38 292.222 111.35 306.262Z" fill="black" stroke="black" stroke-width="0.9498" stroke-miterlimit="10"/>
<path d="M133.17 311.342C133.17 311.342 127.57 285.282 110.76 284.522C110.77 284.522 110.14 301.902 133.17 311.342Z" fill="black" stroke="black" stroke-width="0.9118" stroke-miterlimit="10"/>
</svg>
